<?xml version="1.0" encoding="utf-8"?>
<!-- Generator: Adobe Illustrator 23.0.3, SVG Export Plug-In . SVG Version: 6.00 Build 0)  -->
<svg version="1.0" id="Objects" xmlns="http://www.w3.org/2000/svg" xmlns:xlink="http://www.w3.org/1999/xlink" x="0px" y="0px"
	 width="1400px" height="900px" viewBox="0 0 1400 900" enable-background="new 0 0 1400 900" xml:space="preserve">
<path fill="#18B28D" d="M202,748c-5,0-10-1-14-4c-41-31-63-86-117-90c-24-2.4-47.3,3.9-71,8.6V900h648.3
	c-54.4-48.4-122.7-73.9-188.3-102C379,762,291,761,202,748z"/>
<path fill="#00C99E" d="M1155,882c-8-15-20-27-33-39c-2-3-4-7-7-10c-41-33-84-60-137-69c-84-16-156,23-238,37c-31,6-58-3-82-22
	c-41-33-48-85-54-135c-3-27-33-44-59-51c-52-14-105-6-158-9c-25-2-48-11-54-37c-5-19-7-37-14-55c-13-30-43-43-73-50c-25-5-49,4-74,9
	c-5,1-10,0-15-2c-24-15-40-39-67-46c-37-8.1-65,18-90,43v216.6c23.7-4.7,47-11,71-8.6c54,4,76,59,117,90c4,3,9,4,14,4
	c89,13,177,14,258,50c65.6,28.1,133.9,53.6,188.3,102h516.9C1161.6,894.1,1158.2,888.2,1155,882z"/>
<path fill="#03DBA7" d="M1400,796.3c-198.4-160-404.5-136.6-543-140.6c-138.5-4.1-240-83.7-330.4-236.7S240.5,263.7,160.5,216.8
	S0,0,0,0v446c25-25,53-51.1,90-43c27,7,43,31,67,46c5,2,10,3,15,2c25-5,49-14,74-9c30,7,60,20,73,50c7,18,9,36,14,55
	c6,26,29,35,54,37c53,3,106-5,158,9c26,7,56,24,59,51c6,50,13,102,54,135c24,19,51,28,82,22c82-14,154-53,238-37c53,9,96,36,137,69
	c3,3,5,7,7,10c13,12,25,24,33,39c3.2,6.2,6.6,12.1,10.2,18H1400V796.3z"/>
<g>
	<g>
		<g>
			<path fill="#18B28D" d="M357.5,497.7c0,0,71.4-26.7,102.7,49.2C460.2,546.9,376.6,584.8,357.5,497.7z"/>
		</g>
		<g>
			<path fill="#18B28D" d="M663.1,346.6c0,0-79.7,2.4-63.6,93.5C599.5,440.1,661.4,433.7,663.1,346.6z"/>
		</g>
		<g>
			<path fill="#18B28D" d="M730,503.2c0,0-86.6-36.2-89.9,44C640.1,547.2,704.7,589.8,730,503.2z"/>
		</g>
		<g>
			<path fill="#18B28D" d="M427.1,374.3c0,0-1.9,58.5,64.7,45C491.9,419.3,483.6,367,427.1,374.3z"/>
		</g>
		<g>
			<path fill="#18B28D" d="M480.3,705.8c-0.3,0-0.6,0-0.9-0.1c-2.8-0.5-4.6-3.2-4.1-6c12.2-65.4,45.7-135.7,71.6-183.2
				c28.1-51.3,53.6-87.8,53.9-88.1c1.6-2.3,4.8-2.9,7.1-1.2c2.3,1.6,2.9,4.8,1.2,7.1c-1,1.4-100.9,144.5-123.8,267.3
				C484.8,704.1,482.7,705.8,480.3,705.8z"/>
		</g>
		<g>
			<path fill="#18B28D" d="M538.2,548c-0.2,0-0.5,0-0.7,0c-2.8-0.4-4.7-3-4.3-5.8c11.1-79-47.6-120-48.2-120.4
				c-2.3-1.6-2.9-4.8-1.3-7.1c1.6-2.3,4.8-2.9,7.1-1.3c0.7,0.5,16.5,11.4,30.9,32.9c13.3,19.9,27.9,52.9,21.6,97.4
				C542.9,546.2,540.7,548,538.2,548z"/>
		</g>
		<g>
			<path fill="#18B28D" d="M498.2,643.8c-0.7,0-1.5-0.2-2.2-0.5c-2.5-1.2-3.6-4.3-2.4-6.8c9.2-19.3,31.6-47.5,86.3-72.7
				c18-8.3,34.1-13.7,44.4-16.8c5.9-1.8,19.9-5.8,23.7-4.9c2.4,0.5,4.2,2.6,4.2,5c0,2.8-2.2,5.1-5,5.2c-0.4,0-0.8,0-1.2-0.1
				c-5.4,0.6-33.3,7.5-63.9,21.9c-27.8,13.1-64.2,35.3-79.2,66.9C502,642.7,500.1,643.8,498.2,643.8z"/>
		</g>
		<g>
			<path fill="#18B28D" d="M487.1,670.6c-0.1,0-0.2,0-0.3,0c-2.8-0.2-5-2.6-4.8-5.4c4.1-68-31.7-116-32-116.5
				c-1.7-2.2-1.3-5.5,1-7.2c2.2-1.7,5.5-1.3,7.2,1c1.6,2.1,38.4,51.5,34.1,123.2C492,668.5,489.8,670.6,487.1,670.6z"/>
		</g>
	</g>
	<path fill="#F73787" d="M571.4,399.8c-2.6,8.3-11.5,12.8-19.7,10.2c-8.3-2.6-12.8-11.5-10.2-19.7c2.6-8.3,11.5-12.8,19.7-10.2
		C569.4,382.7,574,391.6,571.4,399.8z"/>
	<path fill="#F73787" d="M467.5,478.6c-2.1,6.5-9,10.1-15.5,8c-6.5-2.1-10.1-9-8-15.5c2.1-6.5,9-10.1,15.5-8
		C466,465.2,469.6,472.1,467.5,478.6z"/>
	<path fill="#F73787" d="M631.4,588.4c-1.5,4.7-6.5,7.3-11.3,5.8c-4.7-1.5-7.3-6.5-5.8-11.3c1.5-4.7,6.5-7.3,11.3-5.8
		C630.3,578.6,633,583.6,631.4,588.4z"/>
	<path fill="#F73787" d="M636.6,498.2c-3.9,12.4-17.2,19.2-29.6,15.3c-12.4-3.9-19.2-17.2-15.3-29.6c3.9-12.4,17.2-19.2,29.6-15.3
		C633.7,472.6,640.5,485.8,636.6,498.2z"/>
	<g>
		<path fill="#333333" d="M313.6,629.2c-8.5-2.3-32.9-8.2-36.1-10.2c-2.3-1.4-4.8-2.6-7.1-4.1c-7.9-4.8-15.6-10.2-22.8-16
			c-4.7-3.8-9.1-7.9-13.2-12.4c-20.3-22.5-86.1-68.5-161.9-90.9c0,0-23.2,30.8,109.3,77.6c0,0,31.6,14.8,50,39
			c9.2,12.1,18.7,25.7,31.4,34.3c5.4,3.6,11.8,4.7,17.9,6.3c7.2,1.9,14.4,3.8,21.6,5.7c0.1,0,2.7,0.7,2.7,0.7L313.6,629.2z"/>
		<path fill="#333333" d="M292.8,623.8c0,0,12.2,75.3,38.8,90.5c24.4,13.9,228.9,67.3,257,67.1c30.5-0.2,78-60,78-60L292.8,623.8z"
			/>
	</g>
</g>
<text transform="matrix(1 0 0 1 773.7129 344.5877)" fill="#00C99E" font-family="'Roboto-Black'" font-size="81.3735px">Healthy Food</text>
<g>
	<path fill="#F73787" d="M1096.8,734.2h140.2c11.5,0,20.9-9.4,20.9-20.9v-10.5c0-11.5-9.4-20.9-20.9-20.9h-140.2
		c-11.5,0-20.9,9.4-20.9,20.9v10.5C1075.8,724.7,1085.2,734.2,1096.8,734.2z"/>
	<text transform="matrix(1 0 0 1 1103.0957 717.2824)" fill="#FFFFFF" font-family="'Roboto-Regular'" font-size="24.7011px">read more</text>
</g>
<rect x="721.9" y="426.3" fill="none" width="535.9" height="109.3"/>
<text transform="matrix(1 0 0 1 732.2256 445.0004)"><tspan x="0" y="0" fill="#4D4D4D" font-family="'Roboto-Light'" font-size="25px" letter-spacing="1">Lorem ipsum dolor sit amet, consectelorem </tspan><tspan x="105.5" y="45.1" fill="#4D4D4D" font-family="'Roboto-Light'" font-size="25px" letter-spacing="1">ipsum dolor sit amet, consectetuer </tspan><tspan x="302.2" y="90.3" fill="#4D4D4D" font-family="'Roboto-Light'" font-size="25px" letter-spacing="1">adipiscing elit, sed </tspan></text>
<text transform="matrix(1 0 0 1 537.3579 130.6551)"><tspan x="0" y="0" fill="#00C99E" font-family="'Roboto-Black'" font-size="20.8409px" letter-spacing="1">TEAM</tspan><tspan x="63.5" y="0" fill="#00C99E" font-family="'Roboto-Black'" font-size="20.8409px" letter-spacing="40">	</tspan><tspan x="108.7" y="0" fill="#00C99E" font-family="'Roboto-Black'" font-size="20.8409px" letter-spacing="100">	</tspan><tspan x="214.4" y="0" fill="#00C99E" font-family="'Roboto-Black'" font-size="20.8409px" letter-spacing="1">CARRER</tspan><tspan x="304.1" y="0" fill="#00C99E" font-family="'Roboto-Black'" font-size="20.8409px" letter-spacing="12">	</tspan><tspan x="321.5" y="0" fill="#00C99E" font-family="'Roboto-Black'" font-size="20.8409px" letter-spacing="101">	</tspan><tspan x="428.7" y="0" fill="#00C99E" font-family="'Roboto-Black'" font-size="20.8409px" letter-spacing="1">HOME</tspan><tspan x="493.9" y="0" fill="#00C99E" font-family="'Roboto-Black'" font-size="20.8409px" letter-spacing="36">	</tspan><tspan x="535.9" y="0" fill="#00C99E" font-family="'Roboto-Black'" font-size="20.8409px" letter-spacing="101">	</tspan><tspan x="643.1" y="0" fill="#00C99E" font-family="'Roboto-Black'" font-size="20.8409px" letter-spacing="1">CONTACT</tspan></text>
</svg>
