<?xml version="1.0" encoding="utf-8"?>
<!-- Generator: Adobe Illustrator 19.1.0, SVG Export Plug-In . SVG Version: 6.00 Build 0)  -->
<svg version="1.1" xmlns="http://www.w3.org/2000/svg" xmlns:xlink="http://www.w3.org/1999/xlink" x="0px" y="0px"
	 viewBox="0 0 28.3 28.3" style="enable-background:new 0 0 28.3 28.3;" xml:space="preserve">
<style type="text/css">
	.st0{fill:#474747;}
</style>
<g id="Ebene_2">
	<g>
		<path class="st0" d="M6.1,21.6H4.8v0.9H4.7v-1.9h0.2v0.8h1.3v-0.8h0.2v1.9H6.1V21.6z"/>
		<path class="st0" d="M8.2,22H7.1l-0.2,0.5H6.7l0.8-1.9h0.2l0.8,1.9H8.4L8.2,22z M7.1,21.9h1l-0.5-1.1L7.1,21.9z"/>
		<path class="st0" d="M8.9,20.6h0.2v1.7h1v0.1H8.9V20.6z"/>
		<path class="st0" d="M11.8,22h-1.1l-0.2,0.5h-0.2l0.8-1.9h0.2l0.8,1.9H12L11.8,22z M10.8,21.9h1l-0.5-1.1L10.8,21.9z"/>
		<path class="st0" d="M12.6,20.6h0.2v1.7h1v0.1h-1.2V20.6z"/>
		<path class="st0" d="M14,21.5c0-0.6,0.5-1,1-1c0.3,0,0.6,0.1,0.7,0.3L15.6,21c-0.1-0.2-0.4-0.3-0.6-0.3c-0.5,0-0.8,0.3-0.8,0.8
			c0,0.5,0.4,0.8,0.8,0.8c0.2,0,0.5-0.1,0.6-0.3l0.1,0.1c-0.2,0.2-0.4,0.3-0.7,0.3C14.4,22.5,14,22.1,14,21.5z"/>
		<path class="st0" d="M17.6,21.6h-1.3v0.9h-0.2v-1.9h0.2v0.8h1.3v-0.8h0.2v1.9h-0.2V21.6z"/>
		<path class="st0" d="M18.4,20.6h1.3v0.1h-1.1v0.7h1.1v0.1h-1.1v0.7h1.1v0.1h-1.3V20.6z"/>
		<path class="st0" d="M20.1,21.5c0-0.6,0.5-1,1-1c0.3,0,0.6,0.1,0.7,0.3L21.7,21c-0.1-0.2-0.4-0.3-0.6-0.3c-0.5,0-0.8,0.3-0.8,0.8
			c0,0.5,0.4,0.8,0.8,0.8c0.2,0,0.5-0.1,0.6-0.3l0.1,0.1c-0.2,0.2-0.4,0.3-0.7,0.3C20.5,22.5,20.1,22.1,20.1,21.5z"/>
		<path class="st0" d="M22.7,21.6l-0.2,0.2v0.6h-0.2v-1.9h0.2v1l1-1h0.2l-0.9,0.9l0.9,1h-0.2L22.7,21.6z"/>
	</g>
</g>
<g id="Ebene_3">
	<g>
		<rect x="3" y="12.7" width="0.4" height="9.8"/>
		<rect x="3" y="5.9" width="0.4" height="6.2"/>
		<rect x="4.7" y="12.7" width="0.5" height="7.5"/>
		<rect x="3.7" y="12.7" width="0.2" height="9.8"/>
		<rect x="3.7" y="5.9" width="0.2" height="6.2"/>
		<rect x="7.5" y="12.7" width="1.3" height="7.5"/>
		<rect x="6.1" y="12.7" width="0.4" height="7.5"/>
		<rect x="6.9" y="12.7" width="0.2" height="7.5"/>
		<rect x="9.7" y="12.7" width="0.5" height="7.5"/>
		<rect x="9.7" y="11.3" width="0.5" height="0.8"/>
		<rect x="12.1" y="8.9" width="0.6" height="3.2"/>
		<rect x="12.1" y="12.7" width="0.6" height="7.5"/>
		<rect x="16.8" y="8.9" width="0.6" height="3.2"/>
		<rect x="16.8" y="12.7" width="0.6" height="7.5"/>
		<rect x="11" y="10.1" width="0.2" height="2"/>
		<rect x="11" y="12.7" width="0.2" height="7.5"/>
		<rect x="13.4" y="7.6" width="0.3" height="4.5"/>
		<rect x="13.4" y="12.7" width="0.3" height="7.5"/>
		<rect x="14" y="12.7" width="0.4" height="7.5"/>
		<rect x="14" y="5.7" width="0.4" height="6.4"/>
		<rect x="14.8" y="12.7" width="0.2" height="7.5"/>
		<rect x="14.8" y="5.7" width="0.2" height="6.4"/>
		<rect x="15.4" y="7.6" width="0.5" height="4.5"/>
		<rect x="15.4" y="12.7" width="0.5" height="7.5"/>
		<rect x="18" y="12.7" width="0.8" height="7.5"/>
		<rect x="18" y="10.1" width="0.8" height="2"/>
		<rect x="19.2" y="11.3" width="0.3" height="0.8"/>
		<rect x="19.2" y="12.7" width="0.3" height="7.5"/>
		<rect x="24.3" y="12.7" width="0.4" height="9.8"/>
		<rect x="24.3" y="5.9" width="0.4" height="6.2"/>
		<rect x="25.1" y="12.7" width="0.2" height="9.8"/>
		<rect x="25.1" y="5.9" width="0.2" height="6.2"/>
		<rect x="23.4" y="12.7" width="0.3" height="7.5"/>
		<rect x="22.8" y="12.7" width="0.1" height="7.5"/>
		<rect x="21.4" y="12.7" width="0.1" height="7.5"/>
		<rect x="20.4" y="12.7" width="0.2" height="7.5"/>
	</g>
</g>
</svg>
